<svg width="544" height="306" viewBox="0 0 544 306" xmlns="http://www.w3.org/2000/svg">
  <defs>
    <radialGradient id="glow-lpintro" cx="50%" cy="42%" r="75%">
      <stop offset="0%" stop-color="#1E2536"/>
      <stop offset="100%" stop-color="#141926"/>
    </radialGradient>
    <radialGradient id="orb-lpintro" cx="50%" cy="50%" r="50%">
      <stop offset="0%" stop-color="#7AA2F7" stop-opacity="0.32"/>
      <stop offset="100%" stop-color="#7AA2F7" stop-opacity="0"/>
    </radialGradient>
  </defs>
  <rect width="544" height="306" fill="url(#glow-lpintro)"/>
  <circle cx="272" cy="128.51999999999998" r="170" fill="url(#orb-lpintro)"/>
  <line x1="130" y1="245" x2="430" y2="245" stroke="rgba(255,255,255,0.35)" stroke-width="2"/><line x1="130" y1="245" x2="130" y2="55" stroke="rgba(255,255,255,0.35)" stroke-width="2"/><polygon points="430,245 422,240 422,250" fill="rgba(255,255,255,0.35)"/><polygon points="130,55 125,63 135,63" fill="rgba(255,255,255,0.35)"/><text x="444" y="249" text-anchor="start" dominant-baseline="central" font-family="Georgia, serif" font-weight="700" font-size="16" fill="rgba(255,255,255,0.5)" opacity="0.8">x</text><text x="126" y="39" text-anchor="start" dominant-baseline="central" font-family="Georgia, serif" font-weight="700" font-size="16" fill="rgba(255,255,255,0.5)" opacity="0.8">y</text><polygon points="144,239 350,239 380,155 280,77 160,135" fill="#7AA2F7" fill-opacity="0.16" stroke="#7AA2F7" stroke-width="2"/><line x1="170" y1="45" x2="410" y2="255" stroke="#FB7185" stroke-width="1.5" stroke-dasharray="6 5" opacity="0.7"/><circle cx="280" cy="77" r="7" fill="#F59E0B"/><circle cx="280" cy="77" r="13" fill="none" stroke="#F59E0B" stroke-width="2" opacity="0.6"/><text x="504" y="46" text-anchor="end" dominant-baseline="central" font-family="Georgia, serif" font-weight="700" font-size="20" fill="#CBD5E1" opacity="1">min c</text><text x="504" y="46" text-anchor="start" dominant-baseline="central" font-family="Georgia, serif" font-weight="700" font-size="13" fill="#CBD5E1" opacity="1">ᵀx</text></svg>