<svg width="544" height="306" viewBox="0 0 544 306" xmlns="http://www.w3.org/2000/svg">
  <defs>
    <radialGradient id="glow-starbattle" cx="50%" cy="42%" r="75%">
      <stop offset="0%" stop-color="#1E2536"/>
      <stop offset="100%" stop-color="#141926"/>
    </radialGradient>
    <radialGradient id="orb-starbattle" cx="50%" cy="50%" r="50%">
      <stop offset="0%" stop-color="#7AA2F7" stop-opacity="0.35"/>
      <stop offset="100%" stop-color="#7AA2F7" stop-opacity="0"/>
    </radialGradient>
    
  </defs>
  <rect width="544" height="306" fill="url(#glow-starbattle)"/>
  <circle cx="272" cy="128.51999999999998" r="170" fill="url(#orb-starbattle)"/>
  <rect x="162" y="43" width="220" height="220" rx="10" fill="none" stroke="rgba(255,255,255,0.25)" stroke-width="2"/><rect x="164" y="45" width="36" height="36" fill="hsla(120, 70%, 60%, 0.5)"/><rect x="200" y="45" width="36" height="36" fill="hsla(120, 70%, 60%, 0.5)"/><rect x="236" y="45" width="36" height="36" fill="hsla(120, 70%, 60%, 0.5)"/><rect x="272" y="45" width="36" height="36" fill="hsla(0, 70%, 60%, 0.5)"/><rect x="308" y="45" width="36" height="36" fill="hsla(0, 70%, 60%, 0.5)"/><rect x="344" y="45" width="36" height="36" fill="hsla(0, 70%, 60%, 0.5)"/><rect x="164" y="81" width="36" height="36" fill="hsla(120, 70%, 60%, 0.5)"/><rect x="200" y="81" width="36" height="36" fill="hsla(120, 70%, 60%, 0.5)"/><rect x="236" y="81" width="36" height="36" fill="hsla(0, 70%, 60%, 0.5)"/><rect x="272" y="81" width="36" height="36" fill="hsla(0, 70%, 60%, 0.5)"/><rect x="308" y="81" width="36" height="36" fill="hsla(60, 70%, 60%, 0.5)"/><rect x="344" y="81" width="36" height="36" fill="hsla(60, 70%, 60%, 0.5)"/><rect x="164" y="117" width="36" height="36" fill="hsla(180, 70%, 60%, 0.5)"/><rect x="200" y="117" width="36" height="36" fill="hsla(120, 70%, 60%, 0.5)"/><rect x="236" y="117" width="36" height="36" fill="hsla(120, 70%, 60%, 0.5)"/><rect x="272" y="117" width="36" height="36" fill="hsla(120, 70%, 60%, 0.5)"/><rect x="308" y="117" width="36" height="36" fill="hsla(120, 70%, 60%, 0.5)"/><rect x="344" y="117" width="36" height="36" fill="hsla(240, 70%, 60%, 0.5)"/><rect x="164" y="153" width="36" height="36" fill="hsla(180, 70%, 60%, 0.5)"/><rect x="200" y="153" width="36" height="36" fill="hsla(180, 70%, 60%, 0.5)"/><rect x="236" y="153" width="36" height="36" fill="hsla(300, 70%, 60%, 0.5)"/><rect x="272" y="153" width="36" height="36" fill="hsla(300, 70%, 60%, 0.5)"/><rect x="308" y="153" width="36" height="36" fill="hsla(240, 70%, 60%, 0.5)"/><rect x="344" y="153" width="36" height="36" fill="hsla(240, 70%, 60%, 0.5)"/><rect x="164" y="189" width="36" height="36" fill="hsla(300, 70%, 60%, 0.5)"/><rect x="200" y="189" width="36" height="36" fill="hsla(300, 70%, 60%, 0.5)"/><rect x="236" y="189" width="36" height="36" fill="hsla(300, 70%, 60%, 0.5)"/><rect x="272" y="189" width="36" height="36" fill="hsla(240, 70%, 60%, 0.5)"/><rect x="308" y="189" width="36" height="36" fill="hsla(240, 70%, 60%, 0.5)"/><rect x="344" y="189" width="36" height="36" fill="hsla(240, 70%, 60%, 0.5)"/><rect x="164" y="225" width="36" height="36" fill="hsla(300, 70%, 60%, 0.5)"/><rect x="200" y="225" width="36" height="36" fill="hsla(300, 70%, 60%, 0.5)"/><rect x="236" y="225" width="36" height="36" fill="hsla(240, 70%, 60%, 0.5)"/><rect x="272" y="225" width="36" height="36" fill="hsla(240, 70%, 60%, 0.5)"/><rect x="308" y="225" width="36" height="36" fill="hsla(240, 70%, 60%, 0.5)"/><rect x="344" y="225" width="36" height="36" fill="hsla(240, 70%, 60%, 0.5)"/><line x1="272" y1="45" x2="272" y2="81" stroke="hsla(120, 70%, 70%, 0.9)" stroke-width="2.5"/><line x1="236" y1="81" x2="272" y2="81" stroke="hsla(120, 70%, 70%, 0.9)" stroke-width="2.5"/><line x1="308" y1="81" x2="344" y2="81" stroke="hsla(0, 70%, 70%, 0.9)" stroke-width="2.5"/><line x1="344" y1="81" x2="380" y2="81" stroke="hsla(0, 70%, 70%, 0.9)" stroke-width="2.5"/><line x1="164" y1="117" x2="200" y2="117" stroke="hsla(120, 70%, 70%, 0.9)" stroke-width="2.5"/><line x1="236" y1="81" x2="236" y2="117" stroke="hsla(120, 70%, 70%, 0.9)" stroke-width="2.5"/><line x1="236" y1="117" x2="272" y2="117" stroke="hsla(0, 70%, 70%, 0.9)" stroke-width="2.5"/><line x1="308" y1="81" x2="308" y2="117" stroke="hsla(0, 70%, 70%, 0.9)" stroke-width="2.5"/><line x1="272" y1="117" x2="308" y2="117" stroke="hsla(0, 70%, 70%, 0.9)" stroke-width="2.5"/><line x1="308" y1="117" x2="344" y2="117" stroke="hsla(60, 70%, 70%, 0.9)" stroke-width="2.5"/><line x1="344" y1="117" x2="380" y2="117" stroke="hsla(60, 70%, 70%, 0.9)" stroke-width="2.5"/><line x1="200" y1="117" x2="200" y2="153" stroke="hsla(180, 70%, 70%, 0.9)" stroke-width="2.5"/><line x1="200" y1="153" x2="236" y2="153" stroke="hsla(120, 70%, 70%, 0.9)" stroke-width="2.5"/><line x1="236" y1="153" x2="272" y2="153" stroke="hsla(120, 70%, 70%, 0.9)" stroke-width="2.5"/><line x1="272" y1="153" x2="308" y2="153" stroke="hsla(120, 70%, 70%, 0.9)" stroke-width="2.5"/><line x1="344" y1="117" x2="344" y2="153" stroke="hsla(120, 70%, 70%, 0.9)" stroke-width="2.5"/><line x1="308" y1="153" x2="344" y2="153" stroke="hsla(120, 70%, 70%, 0.9)" stroke-width="2.5"/><line x1="164" y1="189" x2="200" y2="189" stroke="hsla(180, 70%, 70%, 0.9)" stroke-width="2.5"/><line x1="236" y1="153" x2="236" y2="189" stroke="hsla(180, 70%, 70%, 0.9)" stroke-width="2.5"/><line x1="200" y1="189" x2="236" y2="189" stroke="hsla(180, 70%, 70%, 0.9)" stroke-width="2.5"/><line x1="308" y1="153" x2="308" y2="189" stroke="hsla(300, 70%, 70%, 0.9)" stroke-width="2.5"/><line x1="272" y1="189" x2="308" y2="189" stroke="hsla(300, 70%, 70%, 0.9)" stroke-width="2.5"/><line x1="272" y1="189" x2="272" y2="225" stroke="hsla(300, 70%, 70%, 0.9)" stroke-width="2.5"/><line x1="236" y1="225" x2="272" y2="225" stroke="hsla(300, 70%, 70%, 0.9)" stroke-width="2.5"/><line x1="236" y1="225" x2="236" y2="261" stroke="hsla(300, 70%, 70%, 0.9)" stroke-width="2.5"/><text x="290" y="64" text-anchor="middle" dominant-baseline="central" font-size="20" fill="#F8FAFC">&#9733;</text><text x="362" y="100" text-anchor="middle" dominant-baseline="central" font-size="20" fill="#F8FAFC">&#9733;</text><text x="254" y="136" text-anchor="middle" dominant-baseline="central" font-size="20" fill="#F8FAFC">&#9733;</text><text x="182" y="172" text-anchor="middle" dominant-baseline="central" font-size="20" fill="#F8FAFC">&#9733;</text><text x="326" y="208" text-anchor="middle" dominant-baseline="central" font-size="20" fill="#F8FAFC">&#9733;</text><text x="218" y="244" text-anchor="middle" dominant-baseline="central" font-size="20" fill="#F8FAFC">&#9733;</text></svg>