<svg width="544" height="306" viewBox="0 0 544 306" xmlns="http://www.w3.org/2000/svg">
  <defs>
    <radialGradient id="glow-apad-blog" cx="50%" cy="42%" r="75%">
      <stop offset="0%" stop-color="#1E2536"/>
      <stop offset="100%" stop-color="#141926"/>
    </radialGradient>
  </defs>
  <rect width="544" height="306" fill="url(#glow-apad-blog)"/>
  <rect x="152" y="28" width="250" height="250" rx="16" fill="#141926" stroke="rgba(255,255,255,0.1)" stroke-width="1.5"/>
  <rect x="158.5" y="34.5" width="31.3" height="31.3" rx="6" fill="#FB923C" fill-opacity="0.85"/><rect x="192.8" y="34.5" width="31.3" height="31.3" rx="6" fill="#FB923C" fill-opacity="0.85"/><rect x="227.1" y="34.5" width="31.3" height="31.3" rx="6" fill="#FB923C" fill-opacity="0.85"/><rect x="261.4" y="34.5" width="31.3" height="31.3" rx="6" fill="#4ADE80" fill-opacity="0.85"/><rect x="295.6" y="34.5" width="31.3" height="31.3" rx="6" fill="#4ADE80" fill-opacity="0.85"/><rect x="329.9" y="34.5" width="31.3" height="31.3" rx="6" fill="#4ADE80" fill-opacity="0.85"/><rect x="158.5" y="68.8" width="31.3" height="31.3" rx="6" fill="#1E2536" stroke="#F59E0B" stroke-width="3"/><text x="174.1" y="87.8" text-anchor="middle" font-family="Nunito, sans-serif" font-weight="800" font-size="9.6" fill="#F1F5F9">Jul</text><rect x="192.8" y="68.8" width="31.3" height="31.3" rx="6" fill="#FB923C" fill-opacity="0.85"/><rect x="227.1" y="68.8" width="31.3" height="31.3" rx="6" fill="#FB923C" fill-opacity="0.85"/><rect x="261.4" y="68.8" width="31.3" height="31.3" rx="6" fill="#4ADE80" fill-opacity="0.85"/><rect x="295.6" y="68.8" width="31.3" height="31.3" rx="6" fill="#C084FC" fill-opacity="0.85"/><rect x="329.9" y="68.8" width="31.3" height="31.3" rx="6" fill="#4ADE80" fill-opacity="0.85"/><rect x="158.5" y="103.1" width="31.3" height="31.3" rx="6" fill="#2DD4BF" fill-opacity="0.85"/><rect x="192.8" y="103.1" width="31.3" height="31.3" rx="6" fill="#2DD4BF" fill-opacity="0.85"/><rect x="227.1" y="103.1" width="31.3" height="31.3" rx="6" fill="#2DD4BF" fill-opacity="0.85"/><rect x="261.4" y="103.1" width="31.3" height="31.3" rx="6" fill="#2DD4BF" fill-opacity="0.85"/><rect x="295.6" y="103.1" width="31.3" height="31.3" rx="6" fill="#C084FC" fill-opacity="0.85"/><rect x="329.9" y="103.1" width="31.3" height="31.3" rx="6" fill="#C084FC" fill-opacity="0.85"/><rect x="364.2" y="103.1" width="31.3" height="31.3" rx="6" fill="#C084FC" fill-opacity="0.85"/><rect x="158.5" y="137.4" width="31.3" height="31.3" rx="6" fill="#FACC15" fill-opacity="0.85"/><rect x="192.8" y="137.4" width="31.3" height="31.3" rx="6" fill="#F472B6" fill-opacity="0.85"/><rect x="227.1" y="137.4" width="31.3" height="31.3" rx="6" fill="#2DD4BF" fill-opacity="0.85"/><rect x="261.4" y="137.4" width="31.3" height="31.3" rx="6" fill="#60A5FA" fill-opacity="0.85"/><rect x="295.6" y="137.4" width="31.3" height="31.3" rx="6" fill="#60A5FA" fill-opacity="0.85"/><rect x="329.9" y="137.4" width="31.3" height="31.3" rx="6" fill="#60A5FA" fill-opacity="0.85"/><rect x="364.2" y="137.4" width="31.3" height="31.3" rx="6" fill="#C084FC" fill-opacity="0.85"/><rect x="158.5" y="171.6" width="31.3" height="31.3" rx="6" fill="#FACC15" fill-opacity="0.85"/><rect x="192.8" y="171.6" width="31.3" height="31.3" rx="6" fill="#F472B6" fill-opacity="0.85"/><rect x="227.1" y="171.6" width="31.3" height="31.3" rx="6" fill="#F472B6" fill-opacity="0.85"/><rect x="261.4" y="171.6" width="31.3" height="31.3" rx="6" fill="#60A5FA" fill-opacity="0.85"/><rect x="295.6" y="171.6" width="31.3" height="31.3" rx="6" fill="#F87171" fill-opacity="0.85"/><rect x="329.9" y="171.6" width="31.3" height="31.3" rx="6" fill="#F87171" fill-opacity="0.85"/><rect x="364.2" y="171.6" width="31.3" height="31.3" rx="6" fill="#F87171" fill-opacity="0.85"/><rect x="158.5" y="205.9" width="31.3" height="31.3" rx="6" fill="#FACC15" fill-opacity="0.85"/><rect x="192.8" y="205.9" width="31.3" height="31.3" rx="6" fill="#1E2536" stroke="#F59E0B" stroke-width="3"/><text x="208.4" y="224.9" text-anchor="middle" font-family="Nunito, sans-serif" font-weight="800" font-size="9.6" fill="#F1F5F9">23</text><rect x="227.1" y="205.9" width="31.3" height="31.3" rx="6" fill="#F472B6" fill-opacity="0.85"/><rect x="261.4" y="205.9" width="31.3" height="31.3" rx="6" fill="#60A5FA" fill-opacity="0.85"/><rect x="295.6" y="205.9" width="31.3" height="31.3" rx="6" fill="#F87171" fill-opacity="0.85"/><rect x="329.9" y="205.9" width="31.3" height="31.3" rx="6" fill="#F87171" fill-opacity="0.85"/><rect x="364.2" y="205.9" width="31.3" height="31.3" rx="6" fill="#F87171" fill-opacity="0.85"/><rect x="158.5" y="240.2" width="31.3" height="31.3" rx="6" fill="#FACC15" fill-opacity="0.85"/><rect x="192.8" y="240.2" width="31.3" height="31.3" rx="6" fill="#FACC15" fill-opacity="0.85"/><rect x="227.1" y="240.2" width="31.3" height="31.3" rx="6" fill="#F472B6" fill-opacity="0.85"/>
</svg>